<?xml version="1.0" standalone="no"?>
<!DOCTYPE svg PUBLIC "-//W3C//DTD SVG 20010904//EN"
 "http://www.w3.org/TR/2001/REC-SVG-20010904/DTD/svg10.dtd">
<svg version="1.0" xmlns="http://www.w3.org/2000/svg"
 width="300.000000pt" height="300.000000pt" viewBox="0 0 300.000000 300.000000"
 preserveAspectRatio="xMidYMid meet">
<metadata>
Created by potrace 1.14, written by Peter Selinger 2001-2017
</metadata>
<g transform="translate(0.000000,300.000000) scale(0.100000,-0.100000)"
fill="#000000" stroke="none">
<path d="M2010 2711 c0 -6 -3 -10 -7 -9 -10 2 -84 -33 -99 -47 -5 -5 -10 -39
-9 -73 l1 -64 -51 -26 c-27 -15 -59 -29 -70 -32 -18 -5 -20 -15 -21 -125 -3
-167 -2 -165 -18 -165 -8 0 -22 -8 -32 -17 -10 -10 -19 -17 -21 -16 -7 6 -83
-30 -83 -39 0 -5 -5 -6 -10 -3 -6 3 -17 -1 -26 -9 -8 -9 -22 -16 -30 -16 -8 0
-14 -5 -14 -11 0 -5 -5 -7 -11 -3 -6 3 -15 0 -20 -7 -5 -8 -9 44 -9 130 0 79
-3 142 -6 138 -3 -3 -24 5 -45 19 -21 13 -39 22 -39 19 0 -4 -10 1 -22 9 -12
9 -25 16 -28 16 -3 0 -5 -29 -4 -65 l1 -65 -63 34 -64 34 -1 -27 c-1 -14 -2
-43 -2 -63 0 -21 -5 -38 -10 -38 -5 0 -38 14 -72 31 l-62 30 2 67 2 67 -73 37
-73 38 0 -118 c0 -64 0 -123 0 -130 -1 -15 -41 -7 -52 11 -4 5 -12 6 -18 3 -6
-4 -11 -3 -11 3 0 6 -11 13 -25 17 -14 3 -25 11 -25 17 0 6 -3 7 -6 4 -7 -7
-64 22 -76 38 -4 6 -8 6 -8 1 0 -5 -7 -3 -15 4 -8 7 -15 9 -15 4 0 -5 -5 -2
-10 6 -11 17 -12 13 -12 -55 0 -69 2 -85 10 -84 13 3 72 -25 72 -34 0 -4 5 -5
10 -2 6 3 10 1 10 -5 0 -7 6 -10 14 -7 19 8 26 -14 26 -85 0 -51 3 -61 20 -65
11 -3 20 -9 20 -14 0 -5 3 -8 8 -8 4 1 25 -6 47 -16 l40 -19 -2 -120 c-1 -67
-3 -129 -3 -138 0 -14 -5 -14 -42 5 -24 12 -45 24 -48 27 -3 3 -13 6 -22 8
-16 2 -18 -6 -18 -57 l0 -60 -30 10 c-16 6 -30 15 -30 21 0 5 -6 8 -12 6 -7
-3 -19 2 -27 9 -7 8 -21 13 -30 11 -13 -3 -16 -15 -14 -61 2 -50 0 -57 -15
-55 -9 2 -19 5 -22 8 -7 7 -64 32 -69 30 -2 -1 -8 4 -12 12 -15 22 -26 -7 -25
-61 2 -45 25 -89 40 -74 3 4 6 1 6 -5 0 -7 9 -12 19 -12 11 0 26 -7 35 -15 8
-9 19 -15 23 -14 4 1 13 -7 18 -19 8 -15 15 -18 27 -11 11 6 21 5 30 -4 7 -8
30 -20 51 -26 22 -8 37 -19 38 -29 0 -9 3 -12 5 -6 3 8 19 4 49 -11 72 -39 80
-37 76 13 -4 68 10 76 77 40 31 -16 59 -31 61 -33 6 -7 7 -135 1 -145 -7 -12
-132 -74 -142 -72 -5 1 -8 -2 -8 -8 0 -5 -6 -10 -13 -10 -17 0 -90 -40 -99
-54 -4 -6 -8 -37 -8 -68 0 -47 -4 -60 -22 -72 -12 -8 -25 -13 -30 -10 -4 3 -8
1 -8 -3 0 -9 -59 -37 -72 -34 -5 0 -8 -31 -8 -70 0 -53 -4 -75 -17 -87 -9 -9
-18 -16 -20 -14 -5 5 -97 -40 -104 -50 -5 -7 -5 -90 0 -120 1 -4 13 0 29 8 15
7 33 14 40 14 6 0 12 4 12 9 0 5 16 15 35 21 19 6 35 16 35 22 0 6 3 8 7 5 3
-4 12 -2 20 4 7 6 13 8 13 3 0 -5 4 -4 8 1 4 6 53 33 109 60 l103 50 1 45 c3
92 4 95 24 99 11 2 22 6 25 10 7 9 64 35 73 33 4 -1 7 3 7 9 0 5 3 8 8 6 4 -3
7 -91 7 -196 0 -105 3 -191 8 -191 4 0 22 8 40 17 18 9 34 18 37 18 10 3 65
30 70 35 8 8 80 40 84 37 1 -1 10 4 18 10 13 11 15 -2 14 -115 l-1 -127 25 3
c13 1 27 7 31 14 4 6 12 7 18 4 6 -4 11 -3 11 2 0 16 59 32 83 23 12 -5 26 -9
31 -9 5 0 12 -5 15 -10 7 -11 82 -46 94 -44 4 1 7 -3 7 -9 0 -5 4 -8 9 -5 5 4
11 3 13 -1 1 -5 18 -16 35 -25 31 -16 33 -16 41 0 5 9 7 36 6 59 -2 42 -2 43
24 36 15 -3 29 -9 32 -13 4 -6 76 -40 84 -40 1 0 2 86 1 191 0 105 3 196 7
202 6 9 8 9 8 -1 0 -6 3 -11 8 -10 4 1 31 -10 59 -24 30 -15 56 -22 59 -17 3
5 5 26 4 47 -3 61 -2 64 23 56 12 -4 25 -11 28 -16 3 -5 16 -10 27 -11 12 -1
22 -5 22 -9 0 -4 7 -8 15 -8 12 0 15 -15 15 -76 0 -44 4 -73 9 -69 5 3 12 1
16 -5 4 -6 11 -8 16 -5 5 4 9 1 9 -4 0 -6 7 -11 15 -11 8 0 15 -5 15 -11 0 -5
4 -8 9 -5 5 3 18 -2 30 -12 17 -14 21 -30 23 -87 2 -50 7 -69 16 -67 6 1 12
-3 12 -10 0 -6 3 -9 6 -5 3 3 24 -5 45 -19 21 -13 39 -21 39 -18 0 4 6 2 13
-4 10 -9 12 28 12 186 0 207 -1 212 -47 232 -13 5 -30 14 -38 18 -8 5 -24 13
-35 19 -20 10 -22 20 -24 111 -1 23 -4 41 -8 40 -11 -2 -67 25 -75 37 -4 5 -8
6 -8 1 0 -5 -7 -3 -15 4 -8 7 -15 9 -15 4 0 -5 -5 -2 -10 6 -5 8 -10 43 -10
78 0 61 1 63 23 56 12 -4 24 -9 27 -13 6 -7 79 -42 83 -39 1 1 21 -11 45 -25
23 -15 42 -25 42 -22 0 4 10 -1 22 -9 41 -29 44 -22 43 114 0 115 -2 131 -17
136 -10 3 -18 10 -18 15 0 6 3 8 8 6 22 -14 27 30 26 208 -1 105 -2 194 -3
198 0 4 -30 -8 -66 -27 -36 -19 -67 -30 -71 -25 -3 5 -4 29 -3 52 3 45 -6 71
-21 62 -10 -6 -113 43 -118 56 -2 5 -11 9 -21 9 -9 0 -26 7 -37 15 -12 8 -24
11 -28 8 -3 -3 -6 0 -6 7 0 7 -3 10 -7 7 -8 -9 -33 12 -33 28 0 7 14 18 30 25
17 7 30 17 30 23 0 6 3 7 7 4 3 -4 12 -2 20 4 7 6 13 8 13 4 0 -4 7 -2 15 5
13 11 15 4 15 -54 0 -36 2 -66 5 -66 3 0 51 23 108 51 56 29 104 52 107 52 3
0 18 9 35 19 l30 18 0 130 c0 71 0 130 -1 130 -13 0 -64 -24 -64 -31 0 -5 -3
-8 -7 -7 -5 1 -21 -4 -36 -10 -16 -7 -30 -12 -32 -12 -2 0 -4 86 -4 191 1 105
-2 193 -5 196 -3 3 -12 1 -19 -5 -8 -7 -17 -9 -20 -5 -4 3 -7 0 -7 -7 0 -7 -3
-11 -6 -7 -3 3 -24 -5 -45 -19 -21 -13 -39 -22 -39 -19 0 3 -18 -6 -40 -20
-22 -14 -40 -23 -40 -20 0 3 -11 -2 -25 -11 l-25 -16 -1 58 c-3 176 -4 197
-16 201 -7 3 -13 0 -13 -6z m-530 -867 c0 -36 -3 -64 -7 -62 -93 45 -123 62
-118 67 8 7 107 58 118 60 4 0 7 -29 7 -65z m30 -84 c0 -5 3 -9 8 -8 4 0 26
-8 50 -19 l43 -20 -58 -29 c-32 -16 -61 -30 -65 -32 -5 -2 -8 24 -8 57 0 48 3
61 15 61 8 0 15 -4 15 -10z m621 -443 c4 -5 11 -7 17 -3 14 9 22 -18 22 -78 0
-58 -6 -71 -27 -55 -7 6 -13 9 -13 5 0 -3 -18 5 -39 18 -21 14 -41 23 -43 20
-3 -2 -11 2 -18 11 -9 11 -9 15 -1 15 7 0 11 8 10 18 -1 9 -1 36 0 58 l1 41
43 -20 c23 -12 45 -25 48 -30z"/>
</g>
</svg>
